<?xml version="1.0" encoding="utf-8"?>
<!-- Generator: Adobe Illustrator 27.5.0, SVG Export Plug-In . SVG Version: 6.00 Build 0)  -->
<svg version="1.1" id="Layer_1" xmlns="http://www.w3.org/2000/svg" xmlns:xlink="http://www.w3.org/1999/xlink" x="0px" y="0px"
	 viewBox="0 0 1080 840" style="enable-background:new 0 0 1080 840;" xml:space="preserve">
<style type="text/css">
	.st0{fill:#EFF1F7;}
	.st1{fill:#D4DAED;}
	.st2{fill:#2E3566;}
	
		.st3{fill-rule:evenodd;clip-rule:evenodd;fill:none;stroke:#2D4973;stroke-width:2.7048;stroke-linecap:round;stroke-miterlimit:10;}
	.st4{fill-rule:evenodd;clip-rule:evenodd;fill:#DDE1F0;}
	.st5{fill:#B2BCD9;}
	.st6{fill:#6F85D1;}
	.st7{fill:#7E97ED;}
	.st8{fill:#FFAB66;}
	.st9{fill:#EB9149;}
	.st10{fill:#F79F59;}
	.st11{fill:#FFC18F;}
	.st12{fill:#D67B2F;}
	.st13{fill-rule:evenodd;clip-rule:evenodd;fill:#E3633D;}
	.st14{fill-rule:evenodd;clip-rule:evenodd;fill:#4A2A1A;}
	.st15{fill-rule:evenodd;clip-rule:evenodd;fill:#663A24;}
	.st16{fill-rule:evenodd;clip-rule:evenodd;fill:#D45D39;}
	.st17{fill-rule:evenodd;clip-rule:evenodd;fill:#B34424;}
	.st18{fill-rule:evenodd;clip-rule:evenodd;fill:#7E97ED;}
	.st19{fill-rule:evenodd;clip-rule:evenodd;fill:#B2BCD9;}
	.st20{fill:#D45D39;}
	
		.st21{fill-rule:evenodd;clip-rule:evenodd;fill:none;stroke:#172B73;stroke-width:3.1736;stroke-linecap:round;stroke-linejoin:round;stroke-miterlimit:10;}
	.st22{fill-rule:evenodd;clip-rule:evenodd;fill:#D46D4E;}
	.st23{fill:#D46D4E;}
	.st24{fill:none;stroke:#7B81B5;stroke-width:2.6627;stroke-linecap:round;stroke-linejoin:round;stroke-miterlimit:10;}
</style>
<path class="st0" d="M13.11,595.61c-18.84-163.5,207.03-135.3,250.7-363.32c48.03-250.81,384.8-291.27,471.3-87.42
	c42.6,100.4,101.84,137.72,184.12,191.5c80.55,52.66,166.18,127.14,145.69,256.13c-40.82,256.89-336.14,112.15-535.07,134.4
	C344.86,747.59,44.38,866.92,13.11,595.61z"/>
<g>
	<polygon class="st1" points="707.86,375.85 648.54,678.25 635.86,675.8 692.69,372.55 	"/>
	<path class="st2" d="M771.29,363.27l-68.02-1.09c-5.1-0.08-9.48,3.58-10.31,8.61l-2.08,12.66l80.07,1.29
		c5.93,0.1,10.81-4.63,10.91-10.56l0,0C781.95,368.25,777.22,363.37,771.29,363.27z"/>
</g>
<path class="st3" d="M876.08,667.89c0,4.37-3.54,7.91-7.91,7.91c-4.37,0-7.91-3.54-7.91-7.91c0-4.37,3.54-7.91,7.91-7.91
	C872.54,659.98,876.08,663.52,876.08,667.89z"/>
<path class="st3" d="M728.67,164.96c0,4.37-3.54,7.91-7.91,7.91c-4.37,0-7.91-3.54-7.91-7.91c0-4.37,3.54-7.91,7.91-7.91
	C725.13,157.05,728.67,160.59,728.67,164.96z"/>
<path class="st3" d="M161.02,602.69c0,4.37-3.54,7.91-7.91,7.91c-4.37,0-7.91-3.54-7.91-7.91s3.54-7.91,7.91-7.91
	C157.48,594.78,161.02,598.32,161.02,602.69z"/>
<ellipse class="st4" cx="609.94" cy="801.43" rx="238.89" ry="17.93"/>
<ellipse transform="matrix(0.1582 -0.9874 0.9874 0.1582 -385.9526 1097.0974)" class="st2" cx="450.44" cy="774.9" rx="27.23" ry="27.23"/>
<ellipse transform="matrix(0.7071 -0.7071 0.7071 0.7071 -344.878 717.1877)" class="st2" cx="693.28" cy="774.9" rx="27.23" ry="27.23"/>
<path class="st5" d="M451.16,777.14l-1.25,0c-4.6-0.01-10.03-2.95-10.02-7.55l-3.68-34.31c0.01-4.6,3.78-8.36,8.39-8.35l13.39,0.03
	c4.6,0.01,8.36,3.78,8.35,8.39l-5.94,34.42C460.37,774.38,455.76,777.15,451.16,777.14z"/>
<path class="st5" d="M691.73,780.18l-1.25,0.03c-4.6,0.09-10.1-2.72-10.19-7.32l-4.46-34.22c-0.09-4.6,3.59-8.44,8.19-8.53
	l13.38-0.27c4.6-0.09,8.44,3.59,8.53,8.19l-5.15,34.55C700.88,777.2,696.33,780.08,691.73,780.18z"/>
<g>
	<path class="st1" d="M783.39,755.97l-330.7-0.54c-7.34,0-8.09-11,1.42-11l317.35,1.63l0.32-20.23c0.04-2.58-0.87-5.09-2.57-7.03
		l-20.03-37.79l-111.04,0.26c-10.49,0-9.92-12.1-0.69-12.1l123.74-0.07l20.48,46.33c1.69,1.95,2.28,5.19,2.24,7.77L783.39,755.97z"
		/>
</g>
<ellipse transform="matrix(0.1582 -0.9874 0.9874 0.1582 -313.3903 1182.2087)" class="st2" cx="536.64" cy="774.9" rx="27.23" ry="27.23"/>
<ellipse transform="matrix(0.7071 -0.7071 0.7071 0.7071 -319.0786 779.473)" class="st2" cx="781.37" cy="774.9" rx="27.23" ry="27.23"/>
<path class="st5" d="M538.62,777.21l-1.25,0.04c-4.6,0.14-10.12-2.62-10.26-7.22l-4.81-34.17c-0.14-4.6,3.51-8.48,8.11-8.62
	l13.38-0.41c4.6-0.14,8.48,3.51,8.62,8.11l-4.8,34.6C547.73,774.14,543.22,777.06,538.62,777.21z"/>
<path class="st5" d="M782.36,781.97l-1.25-0.04c-4.6-0.13-10.07-3.23-10.12-7.86l-4.16-34.62c-0.05-4.63,3.67-8.31,8.27-8.18
	l13.38,0.38c4.6,0.13,8.41,4.02,8.46,8.65l-5.45,34.49C791.52,779.42,786.96,782.1,782.36,781.97z"/>
<polygon class="st1" points="821.98,375.85 759.79,691.89 749.18,681.02 806.81,372.55 "/>
<path class="st2" d="M885.41,363.27l-68.02-1.09c-5.1-0.08-9.48,3.58-10.31,8.61L805,383.45l80.07,1.29
	c5.93,0.1,10.81-4.63,10.91-10.56l0,0C896.07,368.25,891.34,363.37,885.41,363.27z"/>
<g>
	<g>
		<g>
			
				<rect x="393.88" y="376.08" transform="matrix(0.0125 -0.9999 0.9999 0.0125 125.7314 1014.2305)" class="st6" width="364.93" height="134.77"/>
			<polygon class="st6" points="451.69,298.59 549.01,149.71 581.81,149.71 708.53,296.92 			"/>
		</g>
	</g>
	<g>
		<g>
			
				<rect x="370.44" y="373.69" transform="matrix(0.0125 -0.9999 0.9999 0.0125 102.5318 985.9664)" class="st7" width="359.98" height="134.77"/>
			<polygon class="st7" points="418.88,298.59 549.01,149.71 675.73,296.92 			"/>
		</g>
	</g>
</g>
<g>
	<g>
		<g>
			<rect x="565.06" y="598.15" class="st8" width="115.7" height="29.91"/>
			<rect x="633.56" y="598.16" class="st9" width="42.93" height="29.91"/>
			<rect x="611.56" y="598.15" class="st10" width="17.99" height="29.91"/>
			<rect x="575.09" y="598.15" class="st11" width="9.87" height="29.91"/>
		</g>
		<rect x="565.06" y="623.63" class="st12" width="115.7" height="4.44"/>
	</g>
	<g>
		<g>
			<rect x="567.76" y="568.45" class="st8" width="115.7" height="29.91"/>
			<rect x="636.26" y="568.45" class="st9" width="42.93" height="29.91"/>
			<rect x="614.27" y="568.45" class="st10" width="17.99" height="29.91"/>
			<rect x="577.79" y="568.45" class="st11" width="9.87" height="29.91"/>
		</g>
		<rect x="567.76" y="593.92" class="st12" width="115.7" height="4.44"/>
	</g>
	<g>
		<g>
			<rect x="562.75" y="538.54" class="st8" width="115.7" height="29.91"/>
			<rect x="631.26" y="538.54" class="st9" width="42.93" height="29.91"/>
			<rect x="609.26" y="538.54" class="st10" width="17.99" height="29.91"/>
			<rect x="572.79" y="538.54" class="st11" width="9.87" height="29.91"/>
		</g>
		<rect x="562.75" y="564.01" class="st12" width="115.7" height="4.44"/>
	</g>
	<g>
		<g>
			<rect x="567.76" y="508.79" class="st8" width="115.7" height="29.91"/>
			<rect x="636.26" y="508.79" class="st9" width="42.93" height="29.91"/>
			<rect x="614.27" y="508.79" class="st10" width="17.99" height="29.91"/>
			<rect x="577.79" y="508.79" class="st11" width="9.87" height="29.91"/>
		</g>
		<rect x="567.76" y="534.26" class="st12" width="115.7" height="4.44"/>
	</g>
	<g>
		<g>
			<rect x="565.06" y="478.87" class="st8" width="115.7" height="29.91"/>
			<rect x="633.56" y="478.87" class="st9" width="42.93" height="29.91"/>
			<rect x="611.56" y="478.87" class="st10" width="17.99" height="29.91"/>
			<rect x="575.09" y="478.87" class="st11" width="9.87" height="29.91"/>
		</g>
		<rect x="565.06" y="504.34" class="st12" width="115.7" height="4.44"/>
	</g>
	<g>
		<g>
			<rect x="575.51" y="449.17" class="st8" width="115.7" height="29.91"/>
			<rect x="644.01" y="449.17" class="st9" width="42.93" height="29.91"/>
			<rect x="622.01" y="449.17" class="st10" width="17.99" height="29.91"/>
			<rect x="585.54" y="449.17" class="st11" width="9.87" height="29.91"/>
		</g>
		<rect x="575.51" y="474.64" class="st12" width="115.7" height="4.44"/>
	</g>
	<g>
		<g>
			<rect x="564.13" y="419.26" class="st8" width="115.7" height="29.91"/>
			<rect x="632.64" y="419.26" class="st9" width="42.93" height="29.91"/>
			<rect x="610.64" y="419.26" class="st10" width="17.99" height="29.91"/>
			<rect x="574.17" y="419.26" class="st11" width="9.87" height="29.91"/>
		</g>
		<rect x="564.13" y="444.73" class="st12" width="115.7" height="4.44"/>
	</g>
	<g>
		<g>
			<rect x="574.4" y="389.51" class="st8" width="115.7" height="29.91"/>
			<rect x="642.9" y="389.51" class="st9" width="42.93" height="29.91"/>
			<rect x="620.9" y="389.51" class="st10" width="17.99" height="29.91"/>
			<rect x="584.43" y="389.5" class="st11" width="9.87" height="29.91"/>
		</g>
		<rect x="574.4" y="414.98" class="st12" width="115.7" height="4.44"/>
	</g>
</g>
<g>
	<polygon class="st1" points="610.85,626.15 599.97,626.17 627.27,454.24 638.15,454.23 	"/>
	<g>
		<path class="st1" d="M626.95,620.71l-144.73,0.19c-16.3,0.02-30.52-13.3-33.81-31.67L426.5,467.05c-0.39-2.18,0.26-4.51,1.65-5.92
			c0.46-0.46,1.19-1.02,2.05-1.02l231.1-0.31l13.52-9.8l-244.46,0.33c-4.05,0.01-7.85,1.61-10.71,4.5
			c-3.59,3.63-5.19,8.81-4.28,13.87l21.91,122.19c4.21,23.46,22.62,39.83,44.79,39.8l154.23-0.21L626.95,620.71z"/>
	</g>
	<g>
		<path class="st1" d="M482.46,450.26l12.55,9.76l294.94,0.14l-29.72,135.67c-3.07,14-16.52,24.18-31.98,24.2l-196.49,0.75
			l-8.43,9.82l204.74,0.28c21.54-0.03,40.24-13.98,44.45-33.19l32.52-148.42L482.46,450.26z"/>
	</g>
	<polygon class="st1" points="694.49,626.04 683.61,626.05 716.73,454.12 727.61,454.11 	"/>
	<polygon class="st1" points="426.77,513.28 426.94,502.61 792.16,501.76 794.12,512.43 	"/>
	<polygon class="st1" points="439.72,578.95 439.87,568.28 777.93,567.77 779.89,578.44 	"/>
	<polygon class="st1" points="554.68,626.3 543.81,626.32 542.65,454.31 553.52,454.3 	"/>
	<polygon class="st1" points="488.23,626.31 477.35,626.33 463.91,454.89 474.79,454.87 	"/>
</g>
<g>
	<g>
		
			<ellipse transform="matrix(1.393364e-03 -1 1 1.393364e-03 -520.405 1072.5756)" class="st4" cx="276.83" cy="796.85" rx="14" ry="77.42"/>
		<path class="st13" d="M306.88,760.3l-3.15,23.62l-11.82-0.64c0,0-1.4-9.37-2.67-22.97L306.88,760.3z"/>
		<path class="st14" d="M304.23,780.39l10.41,7.55c2.15,1.84,13.39,5.42,13.39,5.42l0,0c1.26,2.29-0.79,3.49-2.59,3.79l-32.47-0.68
			c0,0-7.09-1.58-1.49-16C297.57,783.08,303.01,784.88,304.23,780.39z"/>
		<path class="st13" d="M247.32,760.3l-4.42,23.62l-11.79-0.64c0,0-0.89-9.37-1.44-22.97L247.32,760.3z"/>
		<path class="st14" d="M243.59,780.39l10.01,7.55c2.05,1.84,13.1,5.42,13.1,5.42l0,0c1.14,2.29-0.98,3.49-2.79,3.79l-32.43-0.68
			c0,0-7-1.58-0.64-16C236.79,783.08,242.14,784.88,243.59,780.39z"/>
		<path class="st15" d="M224.91,425.44c0.58-1.77,0.2-3.69-0.73-5.3c-7.58-13.1,11.87-19.72,17.7-23.12
			c6.09-3.54,0.5-14.06,12.98-16.82c12.48-2.75,18.14,7.62,18.74,7.49c0.87-0.19-5.14,7.87-5.14,7.87s-6.22,1.3-7.39,13.36
			c-1.17,12.06,1.36,18.66-7.08,27.34c-8.44,8.68-36.66-6.67-36.66-6.67C222.26,430.05,224.18,427.67,224.91,425.44z"/>
		<path class="st16" d="M288.68,409.05c0,0-1.44,10.18-2.64,18.62c-0.32,2.25-1.81,4.14-3.9,4.96c-2.09,0.82-4.46,0.44-6.2-1.01
			c-0.57-0.47-1.12-0.93-1.64-1.37c-2.38-1.98-3.42-5.16-2.67-8.18c1.93-7.73,5.43-21.82,5.43-21.82L288.68,409.05L288.68,409.05z"
			/>
		<polygon class="st17" points="288.36,414.66 287.03,420.71 282.02,414.61 		"/>
		<path class="st16" d="M271.89,397.97c-0.94-2.86,0.6-5.95,3.43-6.89c3.02-1,6.83-2.27,9.85-3.27c2.83-0.94,5.46,0.8,6.82,3.48
			c1.61,3.17,3.37,10.27,4.03,15.57c0.37,2.99-0.98,6.31-3.81,7.25c-3.02,1-13.03,1.1-15.69-4.08
			C274.49,406.1,273.27,402.18,271.89,397.97L271.89,397.97z"/>
		<path class="st15" d="M274.07,412.27c-3.07-1.74-6.56-6.79-7.41-10.21c-0.89-3.57-1.38-8,0.61-10.66
			c4.57-6.12,10.66-10.04,19.19-6.19c1.76,0.79,2.87,2.65,2.6,4.56c-0.51,3.62-2.86,10.03-11.92,17.86L274.07,412.27z"/>
		<path class="st16" d="M276.06,406.91c1.52,1.95,4.04,2.5,5.63,1.23c1.59-1.27,1.65-3.87,0.13-5.82c-1.52-1.95-4.04-2.5-5.63-1.23
			C274.6,402.36,274.54,404.96,276.06,406.91z"/>
		<path class="st18" d="M248.23,507.6l70.9,5.37c11.77,4.21,11.99,70.26,11.99,70.26l-46.21,2.15
			c-21.57-0.45-46.48,16.78-51.77-19.07C227.11,525.32,248.23,507.6,248.23,507.6z"/>
		<path class="st19" d="M301.85,425.42l-11.27-2.96l-18.95-1.65l-27.02,9.15c-9.11,4.41-13.42,14.91-10.04,24.49l6.31,30.89
			c-7.22,23.19-0.71,30.32-9.98,63.4c38.06,14.53,90.56,14.32,102.78-3.09C332.08,497.71,308.81,453.87,301.85,425.42z"/>
		<path class="st20" d="M292.53,422.93c0,0,8.66,20.38-5.71,21.54s-22.06-21.32-22.06-21.32l9.88-4.02l8.45,0.62L292.53,422.93z"/>
		<path class="st19" d="M301.75,425.37c0,0,14.19,3.34,19.9,13.99c5.04,9.39,8.9,19.53,11.83,30.67l-20.68,13.38l-12.72-36.1
			L301.75,425.37z"/>
		<path class="st18" d="M283.1,639.45l0.68-58.6l47.34,2.38c-0.14,8.15-0.07,13.89-1.13,21.92l-10.53,79.67l-8.71,90.48H280.5
			c0,0-2.25-56.77,1.2-80.92C284.27,676.33,284.62,657.89,283.1,639.45z"/>
		<path class="st18" d="M230.55,639.45l3.55-68.95l52.96,8.35c-0.58,8.15-3.8,17.86-5.29,25.89l-17.3,80.06l-13.57,90.48l-30.24,0
			c0,0,0.79-56.77,5.54-80.92C229.75,676.33,231.08,657.89,230.55,639.45z"/>
		<polyline class="st21" points="281.59,607.22 286.37,581.5 298.71,581.09 		"/>
		<path class="st22" d="M229.88,507.08c-10.41-0.55-19.3,4.95-21.33,16.86l2.17,58.99l11.23-5l5.52-44.03L229.88,507.08z"/>
		<path class="st23" d="M221.95,574.39l1.66,10.62c0.33,2.12-0.11,4.29-1.25,6.12l-4.59,7.39c-1.6,2.58-5.28,2.76-7.13,0.35l0,0
			l-1.33-13.47c-0.29-2.97,0.59-6.15,2.48-8.88l3.14-4.56L221.95,574.39z"/>
		<polygon class="st19" points="235.04,439.57 208.61,501.99 208.07,565.66 228.61,570.41 233.84,505.46 250.55,469.21 		"/>
		<path class="st22" d="M335.63,497.85c-9.88,3.31-16.14,11.69-13.65,23.51l23.67,54.07l8.62-8.77l-11.02-42.98L335.63,497.85z"/>
		<path class="st23" d="M352.96,563.38l5.44,9.27c1.09,1.85,1.47,4.04,1.09,6.15l-1.56,8.56c-0.54,2.98-3.9,4.5-6.5,2.95l0,0
			l-6.18-12.04c-1.36-2.66-1.7-5.94-0.95-9.18l1.25-5.4L352.96,563.38z"/>
		<polygon class="st19" points="295.87,446.87 313.98,500.92 336.85,560.35 357.69,557.23 338.72,494.89 333.17,469.72 		"/>
		<path class="st24" d="M239.63,494.66c-0.03-1.24,7.54-28.25,7.54-28.25l-0.9-3.07"/>
		<path class="st24" d="M323.04,503.61c-0.02-0.62-6.28-43.28-6.28-43.28"/>
		<line class="st24" x1="271.58" y1="386.05" x2="268.15" y2="390.28"/>
	</g>
	<path class="st16" d="M292.27,396.27c0.05,0.13,2.04,1.99,5.1,4.42c1.52,1.21-0.94,4.79-2.76,4.42c-1.82-0.37-4.9-5.66-4.9-5.66
		L292.27,396.27z"/>
</g>
</svg>
